<svg width="45" height="45" viewBox="0 0 45 45" fill="none" xmlns="http://www.w3.org/2000/svg">
<path d="M23.5317 29.979L18.6078 29.8922C17.0136 29.862 15.4154 29.9224 13.8524 29.6091C11.4748 29.1409 11.3063 26.8456 11.1301 24.9203C10.8872 22.2135 10.9812 19.4576 11.4395 16.7735C11.6983 15.2674 12.7165 14.3686 14.2911 14.2709C19.6067 13.9159 24.9576 13.958 30.2614 14.1236C30.8216 14.1388 31.3856 14.2217 31.9379 14.3162C34.6643 14.7768 34.7308 17.3778 34.9076 19.5675C35.0838 21.7797 35.0094 24.0033 34.6725 26.2005C34.4022 28.0196 33.8851 29.5452 31.7028 29.6925C28.9686 29.8851 26.2971 30.0401 23.5552 29.9907C23.5553 29.979 23.5395 29.979 23.5317 29.979ZM20.6369 25.3734C22.6974 24.2332 24.7186 23.112 26.7673 21.9795C24.703 20.8393 22.6857 19.7181 20.6369 18.5856V25.3734Z" stroke="#FEF9F3" stroke-linecap="round" stroke-linejoin="round"/>
<rect x="0.5" y="0.5" width="44" height="44" stroke="#FEF9F3"/>
</svg>
