<svg width="45" height="45" viewBox="0 0 45 45" fill="none" xmlns="http://www.w3.org/2000/svg">
<rect x="0.5" y="0.5" width="44" height="44" stroke="#FEF9F3"/>
<path d="M18.7765 17.1391L19.2265 16.5174C19.6826 15.8873 20.4907 15.6197 21.2327 15.8531C21.298 15.8737 21.3461 15.9293 21.3569 15.9969L21.7687 18.5671C21.811 18.831 21.6796 19.0925 21.4425 19.2161C20.9041 19.4968 20.6475 20.1257 20.8359 20.703L21.3085 22.151C21.4041 22.4438 21.5521 22.7168 21.7453 22.9567L22.3987 23.768C22.7787 24.2398 23.4389 24.3779 23.9761 24.0978C24.2187 23.9713 24.5149 24.0142 24.7116 24.2043L26.5757 26.0062C26.6249 26.0538 26.643 26.1251 26.6225 26.1904C26.389 26.9324 25.707 27.4418 24.9293 27.455L24.1349 27.4684C23.3328 27.482 22.5606 27.1639 22.001 26.5891L21.3119 25.8813C19.9554 24.4882 19.017 22.7425 18.6034 20.8426L18.2967 19.434C18.1229 18.6356 18.2974 17.801 18.7765 17.1391Z" stroke="#FEF9F3" stroke-linecap="round" stroke-linejoin="round"/>
<path d="M13.9383 27.1698L14.4082 27.3406C14.4599 27.1984 14.4444 27.0404 14.366 26.9109L13.9383 27.1698ZM12 32.5L11.5301 32.3291C11.4637 32.5117 11.5091 32.7162 11.6464 32.8536C11.7838 32.9909 11.9883 33.0363 12.1709 32.9699L12 32.5ZM17.3302 30.5617L17.5891 30.134C17.4596 30.0556 17.3016 30.0401 17.1594 30.0918L17.3302 30.5617ZM32 22C32 27.2467 27.7467 31.5 22.5 31.5V32.5C28.299 32.5 33 27.799 33 22H32ZM22.5 12.5C27.7467 12.5 32 16.7533 32 22H33C33 16.201 28.299 11.5 22.5 11.5V12.5ZM13 22C13 16.7533 17.2533 12.5 22.5 12.5V11.5C16.701 11.5 12 16.201 12 22H13ZM14.366 26.9109C13.4991 25.4782 13 23.7982 13 22H12C12 23.9857 12.5517 25.8442 13.5105 27.4286L14.366 26.9109ZM12.4699 32.6709L14.4082 27.3406L13.4684 26.9989L11.5301 32.3291L12.4699 32.6709ZM17.1594 30.0918L11.8291 32.0301L12.1709 32.9699L17.5011 31.0316L17.1594 30.0918ZM22.5 31.5C20.7018 31.5 19.0218 31.0009 17.5891 30.134L17.0714 30.9895C18.6558 31.9483 20.5143 32.5 22.5 32.5V31.5Z" fill="#FEF9F3"/>
</svg>
