<svg width="45" height="45" viewBox="0 0 45 45" fill="none" xmlns="http://www.w3.org/2000/svg">
<path d="M13 28V17C13 14.7909 14.7909 13 17 13H28C30.2091 13 32 14.7909 32 17V28C32 30.2091 30.2091 32 28 32H17C14.7909 32 13 30.2091 13 28Z" stroke="#FEF9F3" stroke-linecap="round" stroke-linejoin="round"/>
<path d="M28.5 16C29.0523 16 29.5 16.4477 29.5 17C29.5 17.5523 29.0523 18 28.5 18C27.9477 18 27.5 17.5523 27.5 17C27.5 16.4477 27.9477 16 28.5 16Z" stroke="#FEF9F3" stroke-linecap="round" stroke-linejoin="round"/>
<path d="M18 22.5C18 24.9853 20.0147 27 22.5 27C24.9853 27 27 24.9853 27 22.5C27 20.0147 24.9853 18 22.5 18C20.0147 18 18 20.0147 18 22.5Z" stroke="#FEF9F3" stroke-linecap="round" stroke-linejoin="round"/>
<rect x="0.5" y="0.5" width="44" height="44" stroke="#FEF9F3"/>
</svg>
