<svg width="261" height="55" viewBox="0 0 261 55" fill="none" xmlns="http://www.w3.org/2000/svg">
<path d="M29.3582 28.9476H29.3575H26.4219V26.0527V26.0524H29.3575H29.3582V28.9473V28.9476ZM35.229 34.7367H32.2938V31.8422H35.229V34.7367ZM52.8438 31.8422V36.1839C52.8438 39.7213 50.2549 42.6689 46.848 43.2937C46.1554 38.9171 42.6213 35.4698 38.1649 34.8415V31.8422L52.8438 31.8422ZM38.3627 37.8266C41.0726 38.4501 43.206 40.5537 43.8383 43.2254C41.1287 42.6023 38.9953 40.4984 38.3627 37.8266ZM36.697 52.1048V52.1051H32.2938V37.6316H35.3356C35.9728 42.0257 39.4686 45.5101 43.9075 46.1931C43.2739 49.5524 40.2842 52.1048 36.697 52.1048ZM23.486 34.7371H20.5504V31.8422H23.486V34.7371ZM23.486 52.1051H19.0825C15.4949 52.1051 12.5055 49.5524 11.8719 46.1934C16.3109 45.5104 19.8066 42.026 20.4445 37.6316H23.486L23.486 52.1051ZM17.4167 37.827C16.7841 40.499 14.6504 42.6026 11.9411 43.2261C12.5734 40.554 14.7071 38.4504 17.4167 37.827ZM2.93591 36.1842L2.93591 31.8422L17.6145 31.8422V34.8418C13.1582 35.4702 9.62371 38.9174 8.93139 43.294C5.52517 42.6692 2.93591 39.7216 2.93591 36.1842ZM20.5504 20.2636H23.486V23.1581H20.5504V20.2636ZM2.93591 23.1578L2.93591 18.8161C2.93591 15.2787 5.52517 12.3314 8.93139 11.7066C9.62404 16.0833 13.1582 19.5302 17.6145 20.1588V23.1578L2.93591 23.1578ZM17.4167 17.1737C14.7071 16.5499 12.5734 14.4463 11.9411 11.7746C14.6504 12.398 16.7841 14.5016 17.4167 17.1737ZM19.0825 2.89521V2.89489H23.486L23.486 17.3687H20.4445C19.8066 12.9743 16.3112 9.49021 11.8719 8.80691C12.5055 5.44797 15.4949 2.89521 19.0825 2.89521ZM32.2938 20.2633H35.229V23.1581H32.2938V20.2633ZM32.2938 2.89489H36.697C40.2842 2.89489 43.2739 5.44797 43.9075 8.80658C39.4686 9.48956 35.9728 12.974 35.3356 17.3684H32.2938V2.89489ZM38.3627 17.1734C38.9953 14.5016 41.1287 12.3977 43.8383 11.7742C43.206 14.4457 41.0726 16.5496 38.3627 17.1734ZM52.8438 18.8158V23.1578L38.1649 23.1578V20.1588C42.6213 19.5298 46.1554 16.0833 46.848 11.706C50.2549 12.3308 52.8438 15.2784 52.8438 18.8158ZM32.2938 26.0524L55.7791 26.0524L55.7798 18.8158C55.7798 13.6799 51.9029 9.43944 46.8782 8.77684C46.2062 3.82267 41.9057 0 36.6973 0L29.3582 0.000648499L29.3575 23.1578H26.4219L26.4219 0.000648499L19.0825 0V0.000328064C13.8738 0.000328064 9.57354 3.82299 8.90154 8.77716C3.87684 9.43976 0 13.6799 0 18.8158L0.000655925 26.0524L23.486 26.0524V28.9476L0.000655925 28.9476L0 36.1842C0 41.3204 3.87684 45.5606 8.90154 46.2232C9.57354 51.1773 13.8738 55 19.0825 55L26.4219 54.9994L26.4219 31.8422H29.3575L29.3582 54.9994L36.6973 55V54.9997C41.9057 54.9997 46.2062 51.177 46.8782 46.2228C51.9029 45.5602 55.7798 41.3204 55.7798 36.1842L55.7791 28.9476L32.2938 28.9473L32.2938 26.0524Z" fill="#1D1A15"/>
<path d="M145.253 39.3418H148.415V15.6427H145.253V39.3418Z" fill="#1D1A15"/>
<path d="M158.657 36.333C155.743 36.333 153.371 33.9948 153.371 31.1214C153.371 28.2474 155.743 25.9092 158.657 25.9092C161.572 25.9092 163.942 28.2474 163.942 31.1214C163.942 33.9948 161.572 36.333 158.657 36.333ZM163.943 22.702V24.5118C162.488 23.3797 160.653 22.702 158.657 22.702C153.941 22.702 150.118 26.4715 150.118 31.1214C150.118 35.7712 153.941 39.5408 158.657 39.5408C160.653 39.5408 162.488 38.863 163.943 37.731V39.5408H167.196V22.702L163.943 22.702Z" fill="#1D1A15"/>
<path d="M178.143 39.3418H181.621V22.8148H178.143V39.3418Z" fill="#1D1A15"/>
<path d="M178.143 21.2556H181.621V17.8255H178.143V21.2556Z" fill="#1D1A15"/>
<path d="M176.999 22.4937H174.532V17.7127H171.244V22.4937H168.777V25.6812H171.244V39.229H174.532V25.6812H176.999V22.4937Z" fill="#1D1A15"/>
<path d="M257.837 39.3418H261V15.6427H257.837V39.3418Z" fill="#1D1A15"/>
<path d="M247.048 36.333C244.188 36.333 241.861 33.9948 241.861 31.1214C241.861 28.2474 244.188 25.9092 247.048 25.9092C249.908 25.9092 252.236 28.2474 252.236 31.1214C252.236 33.9948 249.908 36.333 247.048 36.333ZM252.236 22.702V24.5118C250.809 23.3797 249.007 22.702 247.048 22.702C242.42 22.702 238.668 26.4715 238.668 31.1214C238.668 35.7712 242.42 39.5408 247.048 39.5408C249.007 39.5408 250.809 38.863 252.236 37.731V39.5408H255.429V22.702L252.236 22.702Z" fill="#1D1A15"/>
<path d="M238.668 22.4937H236.201V17.7127H232.912V22.4937H230.445V25.6812H232.912V39.229H236.201V25.6812H238.668V22.4937Z" fill="#1D1A15"/>
<path d="M196.607 28.9976C196.607 25.5206 193.775 22.702 190.281 22.702C189.129 22.702 188.049 23.0102 187.119 23.5466V22.702H183.957V39.229H187.119V28.9971C187.12 27.2619 188.538 25.8498 190.281 25.8498C192.025 25.8498 193.444 27.2619 193.444 28.9976H193.444V39.229H196.607V28.9982L196.606 28.9976H196.607Z" fill="#1D1A15"/>
<path d="M229.497 28.9976C229.497 25.5206 226.665 22.702 223.172 22.702C222.019 22.702 220.94 23.0102 220.009 23.5466V22.702H216.847V39.229H220.009V28.9971C220.009 27.2619 221.428 25.8498 223.172 25.8498C224.916 25.8498 226.334 27.2619 226.334 28.9976V39.229H229.497V28.9982L229.496 28.9976H229.497Z" fill="#1D1A15"/>
<path d="M108.025 29.3913C108.7 27.3391 110.656 25.8498 112.959 25.8498C115.263 25.8498 117.217 27.3391 117.892 29.3913H108.025ZM121.186 32.5391C121.285 32.0294 121.339 31.5041 121.339 30.9655C121.339 26.4018 117.587 22.702 112.959 22.702C108.33 22.702 104.578 26.4018 104.578 30.9655C104.578 35.5293 108.33 39.229 112.959 39.229C116.456 39.229 119.452 37.1151 120.708 34.1133H117.04C116.089 35.3083 114.615 36.0806 112.959 36.0806C110.656 36.0806 108.7 34.5914 108.025 32.5391H121.186Z" fill="#1D1A15"/>
<path d="M201.951 29.3913C202.626 27.3391 204.581 25.8498 206.885 25.8498C209.188 25.8498 211.144 27.3391 211.818 29.3913H201.951ZM215.112 32.5391C215.211 32.0294 215.265 31.5041 215.265 30.9655C215.265 26.4018 211.513 22.702 206.885 22.702C202.256 22.702 198.504 26.4018 198.504 30.9655C198.504 35.5293 202.256 39.229 206.885 39.229C210.383 39.229 213.378 37.1151 214.634 34.1133H210.966C210.015 35.3083 208.541 36.0806 206.885 36.0806C204.581 36.0806 202.626 34.5914 201.951 32.5391H215.112Z" fill="#1D1A15"/>
<path d="M102.997 28.959C102.997 25.4688 100.106 22.6397 96.5386 22.6397C95.3624 22.6397 94.2597 22.949 93.3097 23.4874V15.5299L72.3209 15.5299V18.6902H80.3934V39.229H83.6224V18.6902L90.0802 18.6902V39.229H93.3097V28.9585C93.3097 27.2167 94.7587 25.7993 96.5386 25.7993C98.3191 25.7993 99.7675 27.2167 99.7675 28.959V39.229L102.997 39.229V28.9596L102.996 28.959H102.997Z" fill="#1D1A15"/>
<path d="M135.307 28.959H132.478V18.6902H135.313C138.207 18.693 140.56 20.9949 140.56 23.8246C140.56 26.6555 138.204 28.959 135.307 28.959ZM135.307 15.5299H129.246V39.229H132.478V32.1193H135.307C139.994 32.1193 143.793 28.4056 143.793 23.8246C143.793 19.2436 139.994 15.5299 135.307 15.5299Z" fill="#1D1A15"/>
</svg>
