<svg width="80" height="80" viewBox="0 0 80 80" fill="none" xmlns="http://www.w3.org/2000/svg">
<path d="M42.1058 42.1058H42.1049H37.8946V37.8951V37.8946H42.1049H42.1058V42.1054V42.1058ZM50.5259 50.5263H46.3161V46.3161H50.5259V50.5263ZM75.7893 46.3161V52.6312C75.7893 57.7766 72.0762 62.064 67.19 62.9727C66.1966 56.6068 61.1279 51.5927 54.7366 50.6787V46.3161H75.7893ZM55.0202 55.0207C58.9069 55.9276 61.9666 58.9873 62.8735 62.8735C58.9873 61.9671 55.9276 58.9069 55.0202 55.0207ZM52.6312 75.7888V75.7893H46.3161V54.7371H50.6787C51.5927 61.1284 56.6063 66.1966 62.9727 67.19C62.064 72.0762 57.7761 75.7888 52.6312 75.7888ZM33.6839 50.5268H29.4737V46.3161H33.6839V50.5268ZM33.6839 75.7893H27.3683C22.223 75.7893 17.9356 72.0762 17.0268 67.1905C23.3932 66.1971 28.4069 61.1289 29.3217 54.7371H33.6839V75.7893ZM24.9793 55.0212C24.072 58.9078 21.0118 61.9675 17.1261 62.8744C18.0329 58.9878 21.0931 55.928 24.9793 55.0212ZM4.21072 52.6317L4.21072 46.3161H25.2629V50.6792C18.8716 51.5931 13.8024 56.6072 12.8095 62.9732C7.92427 62.0644 4.21072 57.777 4.21072 52.6317ZM29.4737 29.4746H33.6839V33.6849H29.4737V29.4746ZM4.21072 33.6844L4.21072 27.3692C4.21072 22.2239 7.92427 17.937 12.8095 17.0282C13.8029 23.3942 18.8716 28.4078 25.2629 29.3222V33.6844H4.21072ZM24.9793 24.9802C21.0931 24.0729 18.0329 21.0132 17.1261 17.127C21.0118 18.0339 24.072 21.0936 24.9793 24.9802ZM27.3683 4.21166V4.2112H33.6839V25.2639H29.3217C28.4069 18.8721 23.3937 13.8043 17.0268 12.8104C17.9356 7.92474 22.223 4.21166 27.3683 4.21166ZM46.3161 29.4741H50.5259V33.6849H46.3161V29.4741ZM46.3161 4.2112H52.6312C57.7761 4.2112 62.064 7.92474 62.9727 12.81C56.6063 13.8034 51.5927 18.8716 50.6787 25.2634H46.3161V4.2112ZM55.0202 24.9798C55.9276 21.0936 58.9873 18.0334 62.8735 17.1265C61.9666 21.0122 58.9069 24.0724 55.0202 24.9798ZM75.7893 27.3688V33.6844H54.7366V29.3222C61.1279 28.4073 66.1966 23.3942 67.19 17.0273C72.0762 17.936 75.7893 22.2234 75.7893 27.3688ZM46.3161 37.8946H79.9991L80 27.3688C80 19.8984 74.4398 13.7305 67.2333 12.7667C66.2695 5.56068 60.1016 0.000465393 52.6317 0.000465393L42.1058 0.00141144L42.1049 33.6844H37.8946V0.00141144L27.3683 0.000465393V0.000946045C19.8979 0.000946045 13.7305 5.56115 12.7667 12.7672C5.56021 13.7309 0 19.8984 0 27.3688L0.000940735 37.8946L33.6839 37.8946V42.1058L0.000940735 42.1058L0 52.6317C0 60.1025 5.56021 66.27 12.7667 67.2338C13.7305 74.4398 19.8979 80 27.3683 80L37.8946 79.9991L37.8946 46.3161H42.1049L42.1058 79.9991L52.6317 80V79.9995C60.1016 79.9995 66.2695 74.4393 67.2333 67.2333C74.4398 66.2695 80 60.1025 80 52.6317L79.9991 42.1058L46.3161 42.1054V37.8946Z" fill="white"/>
</svg>
