<svg width="311" height="122" viewBox="0 0 311 122" fill="none" xmlns="http://www.w3.org/2000/svg">
<path d="M159.106 42.1058H159.105H154.895V37.8951V37.8946H159.105H159.106V42.1054V42.1058ZM167.526 50.5263H163.316V46.3161H167.526V50.5263ZM192.789 46.3161V52.6312C192.789 57.7766 189.076 62.064 184.19 62.9727C183.197 56.6068 178.128 51.5927 171.737 50.6787V46.3161H192.789ZM172.02 55.0207C175.907 55.9276 178.967 58.9873 179.873 62.8735C175.987 61.9671 172.928 58.9069 172.02 55.0207ZM169.631 75.7888V75.7893H163.316V54.7371H167.679C168.593 61.1284 173.606 66.1966 179.973 67.19C179.064 72.0762 174.776 75.7888 169.631 75.7888ZM150.684 50.5268H146.474V46.3161H150.684V50.5268ZM150.684 75.7893H144.368C139.223 75.7893 134.936 72.0762 134.027 67.1905C140.393 66.1971 145.407 61.1289 146.322 54.7371H150.684V75.7893ZM141.979 55.0212C141.072 58.9078 138.012 61.9675 134.126 62.8744C135.033 58.9878 138.093 55.928 141.979 55.0212ZM121.211 52.6317V46.3161H142.263V50.6792C135.872 51.5931 130.802 56.6072 129.81 62.9732C124.924 62.0644 121.211 57.777 121.211 52.6317ZM146.474 29.4746H150.684V33.6849H146.474V29.4746ZM121.211 33.6844V27.3692C121.211 22.2239 124.924 17.937 129.81 17.0282C130.803 23.3942 135.872 28.4078 142.263 29.3222V33.6844H121.211ZM141.979 24.9802C138.093 24.0729 135.033 21.0132 134.126 17.127C138.012 18.0339 141.072 21.0936 141.979 24.9802ZM144.368 4.21166V4.2112H150.684V25.2639H146.322C145.407 18.8721 140.394 13.8043 134.027 12.8104C134.936 7.92474 139.223 4.21166 144.368 4.21166ZM163.316 29.4741H167.526V33.6849H163.316V29.4741ZM163.316 4.2112H169.631C174.776 4.2112 179.064 7.92474 179.973 12.81C173.606 13.8034 168.593 18.8716 167.679 25.2634H163.316V4.2112ZM172.02 24.9798C172.928 21.0936 175.987 18.0334 179.873 17.1265C178.967 21.0122 175.907 24.0724 172.02 24.9798ZM192.789 27.3688V33.6844H171.737V29.3222C178.128 28.4073 183.197 23.3942 184.19 17.0273C189.076 17.936 192.789 22.2234 192.789 27.3688ZM163.316 37.8946H196.999L197 27.3688C197 19.8984 191.44 13.7305 184.233 12.7667C183.27 5.56068 177.102 0.000465393 169.632 0.000465393L159.106 0.00141144L159.105 33.6844H154.895V0.00141144L144.368 0.000465393V0.000946045C136.898 0.000946045 130.73 5.56115 129.767 12.7672C122.56 13.7309 117 19.8984 117 27.3688L117.001 37.8946L150.684 37.8946V42.1058L117.001 42.1058L117 52.6317C117 60.1025 122.56 66.27 129.767 67.2338C130.73 74.4398 136.898 80 144.368 80L154.895 79.9991V46.3161H159.105L159.106 79.9991L169.632 80V79.9995C177.102 79.9995 183.27 74.4393 184.233 67.2333C191.44 66.2695 197 60.1025 197 52.6317L196.999 42.1058L163.316 42.1054V37.8946Z" fill="white"/>
<path d="M102.601 105.148H104.221V118H102.601V112.132H95.4185V118H93.7985V105.148H95.4185V110.62H102.601V105.148ZM121.568 118L120.236 114.058H114.602L113.27 118H111.614L116.06 105.148H118.796L123.26 118H121.568ZM117.05 106.804L115.088 112.582H119.732L117.77 106.804H117.05ZM130.649 105.148H136.337C137.693 105.148 138.737 105.478 139.469 106.138C140.201 106.786 140.567 107.704 140.567 108.892C140.567 110.512 139.913 111.61 138.605 112.186L140.657 118H138.983L137.057 112.564C136.721 112.6 136.373 112.618 136.013 112.618H132.269V118H130.649V105.148ZM132.269 111.178H136.103C137.987 111.178 138.929 110.416 138.929 108.892C138.929 108.136 138.707 107.566 138.263 107.182C137.819 106.786 137.099 106.588 136.103 106.588H132.269V111.178ZM148.811 118V105.148H151.511L154.751 111.178H155.147L158.333 105.148H161.051V118H159.467V106.984H159.071L155.777 113.086H154.085L150.791 106.984H150.395V118H148.811ZM175.079 104.914C176.963 104.914 178.433 105.544 179.489 106.804C180.545 108.064 181.073 109.654 181.073 111.574C181.073 113.494 180.545 115.084 179.489 116.344C178.433 117.604 176.963 118.234 175.079 118.234C173.183 118.234 171.707 117.61 170.651 116.362C169.607 115.102 169.085 113.506 169.085 111.574C169.085 109.642 169.607 108.052 170.651 106.804C171.707 105.544 173.183 104.914 175.079 104.914ZM171.821 115.264C172.553 116.26 173.639 116.758 175.079 116.758C176.519 116.758 177.605 116.26 178.337 115.264C179.069 114.268 179.435 113.038 179.435 111.574C179.435 110.11 179.069 108.88 178.337 107.884C177.605 106.888 176.519 106.39 175.079 106.39C173.639 106.39 172.553 106.888 171.821 107.884C171.089 108.88 170.723 110.11 170.723 111.574C170.723 113.038 171.089 114.268 171.821 115.264ZM198.035 105.148H199.619V118H197.063L191.087 107.254H190.691V118H189.107V105.148H191.663L197.639 115.894H198.035V105.148ZM208.396 105.148H210.016V118H208.396V105.148ZM227.642 105.148V107.002L220.028 116.128V116.524H227.894V118H218.03V116.128L225.662 107.02V106.624H218.516V105.148H227.642ZM244.481 118L243.149 114.058H237.515L236.183 118H234.527L238.973 105.148H241.709L246.173 118H244.481ZM239.963 106.804L238.001 112.582H242.645L240.683 106.804H239.963ZM261.432 105.148V106.588H257.22V118H255.6V106.588H251.352V105.148H261.432ZM268.914 105.148H270.534V118H268.914V105.148ZM284.668 104.914C286.552 104.914 288.022 105.544 289.078 106.804C290.134 108.064 290.662 109.654 290.662 111.574C290.662 113.494 290.134 115.084 289.078 116.344C288.022 117.604 286.552 118.234 284.668 118.234C282.772 118.234 281.296 117.61 280.24 116.362C279.196 115.102 278.674 113.506 278.674 111.574C278.674 109.642 279.196 108.052 280.24 106.804C281.296 105.544 282.772 104.914 284.668 104.914ZM281.41 115.264C282.142 116.26 283.228 116.758 284.668 116.758C286.108 116.758 287.194 116.26 287.926 115.264C288.658 114.268 289.024 113.038 289.024 111.574C289.024 110.11 288.658 108.88 287.926 107.884C287.194 106.888 286.108 106.39 284.668 106.39C283.228 106.39 282.142 106.888 281.41 107.884C280.678 108.88 280.312 110.11 280.312 111.574C280.312 113.038 280.678 114.268 281.41 115.264ZM307.624 105.148H309.208V118H306.652L300.676 107.254H300.28V118H298.696V105.148H301.252L307.228 115.894H307.624V105.148Z" fill="white"/>
<path d="M61.8951 107.276C63.1511 107.276 64.1311 107.696 64.8351 108.536C65.5391 109.376 65.8911 110.436 65.8911 111.716C65.8911 112.996 65.5391 114.056 64.8351 114.896C64.1311 115.736 63.1511 116.156 61.8951 116.156C60.6311 116.156 59.6471 115.74 58.9431 114.908C58.2471 114.068 57.8991 113.004 57.8991 111.716C57.8991 110.428 58.2471 109.368 58.9431 108.536C59.6471 107.696 60.6311 107.276 61.8951 107.276ZM59.7231 114.176C60.2111 114.84 60.9351 115.172 61.8951 115.172C62.8551 115.172 63.5791 114.84 64.0671 114.176C64.5551 113.512 64.7991 112.692 64.7991 111.716C64.7991 110.74 64.5551 109.92 64.0671 109.256C63.5791 108.592 62.8551 108.26 61.8951 108.26C60.9351 108.26 60.2111 108.592 59.7231 109.256C59.2351 109.92 58.9911 110.74 58.9911 111.716C58.9911 112.692 59.2351 113.512 59.7231 114.176ZM77.2355 108.416H72.3275V111.2H76.2995V112.184H72.3275V116H71.2475V107.432H77.2355V108.416Z" fill="white"/>
<path d="M10.4843 118L9.15231 114.058H3.51831L2.18631 118H0.530313L4.97631 105.148H7.71231L12.1763 118H10.4843ZM5.96631 106.804L4.00431 112.582H8.64831L6.68631 106.804H5.96631ZM19.5657 105.148H25.2537C26.6097 105.148 27.6537 105.478 28.3857 106.138C29.1177 106.786 29.4837 107.704 29.4837 108.892C29.4837 110.512 28.8297 111.61 27.5217 112.186L29.5737 118H27.8997L25.9737 112.564C25.6377 112.6 25.2897 112.618 24.9297 112.618H21.1857V118H19.5657V105.148ZM21.1857 111.178H25.0197C26.9037 111.178 27.8457 110.416 27.8457 108.892C27.8457 108.136 27.6237 107.566 27.1797 107.182C26.7357 106.786 26.0157 106.588 25.0197 106.588H21.1857V111.178ZM46.4935 105.148V106.588H42.2815V118H40.6615V106.588H36.4135V105.148H46.4935Z" fill="white"/>
</svg>
