<svg width="211" height="45" viewBox="0 0 211 45" fill="none" xmlns="http://www.w3.org/2000/svg">
<path d="M23.6847 23.6844H23.6841H21.3159V21.3159V21.3156H23.6841H23.6847V23.6841V23.6844ZM28.421 28.421H26.053V26.0527H28.421V28.421ZM42.6317 26.0527V29.605C42.6317 32.4993 40.5431 34.9109 37.7946 35.4221C37.2358 31.8412 34.3847 29.0208 30.7895 28.5067V26.0527H42.6317ZM30.9491 30.9491C33.1353 31.4592 34.8564 33.1803 35.3665 35.3663C33.1806 34.8564 31.4594 33.135 30.9491 30.9491ZM29.6052 42.6312V42.6315H26.053V30.7895H28.507C29.021 34.3847 31.8412 37.2355 35.4224 37.7943C34.9112 40.5428 32.4993 42.6312 29.6052 42.6312ZM18.9473 28.4212H16.579V26.0527H18.9473V28.4212ZM18.9473 42.6315H15.3948C12.5005 42.6315 10.0888 40.5428 9.57764 37.7946C13.1588 37.2358 15.979 34.3849 16.4936 30.7895H18.9473V42.6315ZM14.0509 30.9493C13.5406 33.1356 11.8192 34.8567 9.63346 35.3668C10.1436 33.1806 11.865 31.4594 14.0509 30.9493ZM2.36855 29.6052L2.36855 26.0527H14.2105V28.507C10.6153 29.021 7.76392 31.8415 7.20539 35.4224C4.45743 34.9112 2.36855 32.4995 2.36855 29.6052ZM16.579 16.5793H18.9473V18.9476H16.579V16.5793ZM2.36855 18.9473L2.36855 15.395C2.36855 12.5008 4.45743 10.0893 7.20539 9.57817C7.76419 13.159 10.6153 15.9792 14.2105 16.4936V18.9473H2.36855ZM14.0509 14.0512C11.865 13.5408 10.1436 11.8197 9.63346 9.63373C11.8192 10.1438 13.5406 11.865 14.0509 14.0512ZM15.3948 2.36881V2.36855H18.9473V14.2107H16.4936C15.979 10.6153 13.159 7.76471 9.57764 7.20565C10.0888 4.45743 12.5005 2.36881 15.3948 2.36881ZM26.053 16.579H28.421V18.9476H26.053V16.579ZM26.053 2.36855L29.6052 2.36855C32.4993 2.36855 34.9112 4.45743 35.4224 7.20539C31.8412 7.76419 29.021 10.6151 28.507 14.2105H26.053V2.36855ZM30.9491 14.0509C31.4594 11.865 33.1806 10.1436 35.3665 9.63346C34.8564 11.8192 33.1353 13.5406 30.9491 14.0509ZM42.6317 15.3948L42.6317 18.9473H30.7895V16.4936C34.3847 15.979 37.2358 13.159 37.7946 9.57764C40.5431 10.0888 42.6317 12.5005 42.6317 15.3948ZM26.053 21.3156L44.9997 21.3156L45.0003 15.3948C45.0003 11.1926 41.8726 7.72318 37.819 7.18105C37.2768 3.12764 33.8074 0 29.6055 0L23.6847 0.000530243L23.6841 18.9473H21.3159L21.3159 0.000530243L15.3948 0V0.000267029C11.1927 0.000267029 7.72344 3.1279 7.18131 7.18131C3.12764 7.72344 0 11.1926 0 15.3948L0.000529167 21.3156L18.9473 21.3156V23.6844L0.000529167 23.6844L0 29.6052C0 33.8076 3.12764 37.2768 7.18131 37.819C7.72344 41.8724 11.1927 45 15.3948 45L21.3159 44.9995L21.3159 26.0527H23.6841L23.6847 44.9995L29.6055 45V44.9997C33.8074 44.9997 37.2768 41.8721 37.819 37.8187C41.8726 37.2766 45.0003 33.8076 45.0003 29.6052L44.9997 23.6844L26.053 23.6841V21.3156Z" fill="#1D1A15"/>
<path d="M117.183 32.189H119.734V12.7988H117.183V32.189Z" fill="#1D1A15"/>
<path d="M127.996 29.7273C125.645 29.7273 123.732 27.8142 123.732 25.4632C123.732 23.1118 125.645 21.1987 127.996 21.1987C130.348 21.1987 132.26 23.1118 132.26 25.4632C132.26 27.8142 130.348 29.7273 127.996 29.7273ZM132.261 18.5746V20.0554C131.087 19.1291 129.607 18.5746 127.996 18.5746C124.192 18.5746 121.108 21.6588 121.108 25.4632C121.108 29.2676 124.192 32.3518 127.996 32.3518C129.607 32.3518 131.087 31.7973 132.261 30.871V32.3518H134.885V18.5746H132.261Z" fill="#1D1A15"/>
<path d="M143.716 32.189H146.523V18.6669H143.716V32.189Z" fill="#1D1A15"/>
<path d="M143.716 17.3911H146.523V14.5846H143.716V17.3911Z" fill="#1D1A15"/>
<path d="M142.794 18.4042H140.804V14.4925H138.151V18.4042H136.161V21.0121H138.151V32.0967H140.804V21.0121H142.794V18.4042Z" fill="#1D1A15"/>
<path d="M208.01 32.189H210.561V12.7988H208.01V32.189Z" fill="#1D1A15"/>
<path d="M199.306 29.7273C196.999 29.7273 195.121 27.8142 195.121 25.4632C195.121 23.1118 196.999 21.1987 199.306 21.1987C201.614 21.1987 203.491 23.1118 203.491 25.4632C203.491 27.8142 201.614 29.7273 199.306 29.7273ZM203.491 18.5746V20.0554C202.34 19.1291 200.887 18.5746 199.306 18.5746C195.572 18.5746 192.545 21.6588 192.545 25.4632C192.545 29.2676 195.572 32.3518 199.306 32.3518C200.887 32.3518 202.34 31.7973 203.491 30.871V32.3518H206.067V18.5746H203.491Z" fill="#1D1A15"/>
<path d="M192.545 18.4042H190.555V14.4925H187.902V18.4042H185.912V21.0121H187.902V32.0967H190.555V21.0121H192.545V18.4042Z" fill="#1D1A15"/>
<path d="M158.612 23.7256C158.612 20.8807 156.328 18.5746 153.509 18.5746C152.58 18.5746 151.709 18.8267 150.958 19.2656V18.5746H148.407V32.0967H150.958V23.7251C150.959 22.3054 152.103 21.1501 153.509 21.1501C154.916 21.1501 156.061 22.3054 156.061 23.7256H156.061V32.0967H158.612V23.726L158.612 23.7256H158.612Z" fill="#1D1A15"/>
<path d="M185.146 23.7256C185.146 20.8807 182.862 18.5746 180.044 18.5746C179.114 18.5746 178.243 18.8267 177.492 19.2656V18.5746H174.941V32.0967H177.492V23.7251C177.493 22.3054 178.637 21.1501 180.044 21.1501C181.451 21.1501 182.595 22.3054 182.595 23.7256V32.0967H185.146V23.726L185.146 23.7256H185.146Z" fill="#1D1A15"/>
<path d="M87.1493 24.0477C87.6936 22.3685 89.2714 21.1501 91.1295 21.1501C92.9881 21.1501 94.565 22.3685 95.1097 24.0477H87.1493ZM97.7665 26.6232C97.8469 26.2061 97.8905 25.7763 97.8905 25.3356C97.8905 21.6017 94.8635 18.5746 91.1295 18.5746C87.3955 18.5746 84.3685 21.6017 84.3685 25.3356C84.3685 29.0696 87.3955 32.0967 91.1295 32.0967C93.9512 32.0967 96.3682 30.3671 97.3813 27.9111H94.4219C93.6546 28.8888 92.4656 29.5207 91.1295 29.5207C89.2714 29.5207 87.6936 28.3023 87.1493 26.6232H97.7665Z" fill="#1D1A15"/>
<path d="M162.924 24.0477C163.468 22.3685 165.046 21.1501 166.904 21.1501C168.763 21.1501 170.34 22.3685 170.884 24.0477H162.924ZM173.541 26.6232C173.622 26.2061 173.665 25.7763 173.665 25.3356C173.665 21.6017 170.638 18.5746 166.904 18.5746C163.17 18.5746 160.143 21.6017 160.143 25.3356C160.143 29.0696 163.17 32.0967 166.904 32.0967C169.726 32.0967 172.143 30.3671 173.156 27.9111H170.196C169.429 28.8888 168.24 29.5207 166.904 29.5207C165.046 29.5207 163.468 28.3023 162.924 26.6232H173.541Z" fill="#1D1A15"/>
<path d="M83.0928 23.694C83.0928 20.8384 80.7604 18.5236 77.8825 18.5236C76.9336 18.5236 76.044 18.7767 75.2776 19.2172V12.7065L58.3448 12.7065V15.2922H64.8574V32.0967H67.4623V15.2922H72.6722V32.0967H75.2776V23.6935C75.2776 22.2684 76.4465 21.1088 77.8825 21.1088C79.3189 21.1088 80.4874 22.2684 80.4874 23.694V32.0967H83.0928V23.6944L83.0919 23.694H83.0928Z" fill="#1D1A15"/>
<path d="M109.159 23.694H106.877V15.2922H109.163C111.498 15.2945 113.397 17.1778 113.397 19.4931C113.397 21.8092 111.496 23.694 109.159 23.694ZM109.159 12.7065H104.269V32.0967H106.877V26.2796H109.159C112.94 26.2796 116.005 23.2411 116.005 19.4931C116.005 15.745 112.94 12.7065 109.159 12.7065Z" fill="#1D1A15"/>
</svg>
