<svg width="80" height="80" viewBox="0 0 80 80" fill="none" xmlns="http://www.w3.org/2000/svg">
<path d="M42.1058 42.1053H42.1049H37.8946V37.8946V37.8941H42.1049H42.1058V42.1049V42.1053ZM50.5259 50.5259H46.3161V46.3156H50.5259V50.5259ZM75.7893 46.3156V52.6307C75.7893 57.7761 72.0762 62.0635 67.19 62.9722C66.1966 56.6063 61.1279 51.5922 54.7366 50.6783V46.3156H75.7893ZM55.0202 55.0202C58.9069 55.9271 61.9666 58.9868 62.8735 62.873C58.9873 61.9666 55.9276 58.9064 55.0202 55.0202ZM52.6312 75.7883V75.7888H46.3161V54.7366H50.6787C51.5927 61.1279 56.6063 66.1961 62.9727 67.1895C62.064 72.0757 57.7761 75.7883 52.6312 75.7883ZM33.6839 50.5263H29.4737V46.3156H33.6839V50.5263ZM33.6839 75.7888H27.3683C22.223 75.7888 17.9356 72.0757 17.0268 67.19C23.3932 66.1966 28.4069 61.1284 29.3217 54.7366H33.6839V75.7888ZM24.9793 55.0207C24.072 58.9073 21.0118 61.9671 17.1261 62.8739C18.0329 58.9873 21.0931 55.9275 24.9793 55.0207ZM4.21072 52.6312L4.21072 46.3156H25.2629V50.6787C18.8716 51.5926 13.8024 56.6068 12.8095 62.9727C7.92427 62.064 4.21072 57.7766 4.21072 52.6312ZM29.4737 29.4741H33.6839V33.6844H29.4737V29.4741ZM4.21072 33.6839L4.21072 27.3688C4.21072 22.2234 7.92427 17.9365 12.8095 17.0277C13.8029 23.3937 18.8716 28.4073 25.2629 29.3217V33.6839H4.21072ZM24.9793 24.9798C21.0931 24.0724 18.0329 21.0127 17.1261 17.1265C21.0118 18.0334 24.072 21.0931 24.9793 24.9798ZM27.3683 4.21117V4.21071H33.6839V25.2634H29.3217C28.4069 18.8716 23.3937 13.8038 17.0268 12.81C17.9356 7.92425 22.223 4.21117 27.3683 4.21117ZM46.3161 29.4736H50.5259V33.6844H46.3161V29.4736ZM46.3161 4.21071H52.6312C57.7761 4.21071 62.064 7.92426 62.9727 12.8095C56.6063 13.8029 51.5927 18.8711 50.6787 25.2629H46.3161V4.21071ZM55.0202 24.9793C55.9276 21.0931 58.9873 18.0329 62.8735 17.126C61.9666 21.0117 58.9069 24.0719 55.0202 24.9793ZM75.7893 27.3683V33.6839H54.7366V29.3217C61.1279 28.4069 66.1966 23.3937 67.19 17.0268C72.0762 17.9355 75.7893 22.2229 75.7893 27.3683ZM46.3161 37.8941H79.9991L80 27.3683C80 19.8979 74.4398 13.73 67.2333 12.7662C66.2695 5.5602 60.1016 -2.28882e-05 52.6317 -2.28882e-05L42.1058 0.000923157L42.1049 33.6839H37.8946V0.000923157L27.3683 -2.28882e-05V0.000457764C19.8979 0.000457764 13.7305 5.56066 12.7667 12.7667C5.56021 13.7305 0 19.8979 0 27.3683L0.000940735 37.8941L33.6839 37.8941V42.1053L0.000940735 42.1053L0 52.6312C0 60.1021 5.56021 66.2695 12.7667 67.2333C13.7305 74.4393 19.8979 79.9995 27.3683 79.9995L37.8946 79.9986L37.8946 46.3156H42.1049L42.1058 79.9986L52.6317 79.9995V79.999C60.1016 79.999 66.2695 74.4388 67.2333 67.2328C74.4398 66.269 80 60.1021 80 52.6312L79.9991 42.1053L46.3161 42.1049V37.8941Z" fill="white"/>
</svg>
